<svg id="Layer_1" data-name="Layer 1" xmlns="http://www.w3.org/2000/svg" xmlns:xlink="http://www.w3.org/1999/xlink" viewBox="0 0 40 40"><defs><linearGradient id="linear-gradient" x1="-506.5" y1="-123.71" x2="-506.5" y2="-124.65" gradientTransform="translate(20280 4958.88) scale(40 39.78)" gradientUnits="userSpaceOnUse"><stop offset="0" stop-color="#0062e0"/><stop offset="1" stop-color="#19afff"/></linearGradient></defs><path d="M16.8,39.22A19.46,19.46,0,0,1,20,.58a19.46,19.46,0,0,1,3.2,38.64l-1.06-.87H17.86Z" fill="url(#linear-gradient)"/><path d="M27.57,25.44,28.45,20H23.3V16.21c0-1.55.58-2.71,2.91-2.71h2.53v-5a32.4,32.4,0,0,0-4.27-.38c-4.47,0-7.58,2.71-7.58,7.57V20H12v5.44h4.85V39.13a17.86,17.86,0,0,0,6.41,0V25.44Z" fill="#fff"/></svg>