<svg id="Layer_1" data-name="Layer 1" xmlns="http://www.w3.org/2000/svg" viewBox="0 0 24 24"><path d="M22.56,12.25a12.64,12.64,0,0,0-.2-2.25H12v4.26h5.92a5.07,5.07,0,0,1-2.21,3.31v2.77h3.57A10.75,10.75,0,0,0,22.56,12.25Z" fill="#4285f4"/><path d="M12,23a10.5,10.5,0,0,0,7.28-2.66l-3.57-2.77A6.61,6.61,0,0,1,5.84,14.1H2.18v2.84A11,11,0,0,0,12,23Z" fill="#34a853"/><path d="M5.84,14.09a6.42,6.42,0,0,1,0-4.18V7.07H2.18a10.89,10.89,0,0,0,0,9.86L5,14.71Z" fill="#fbbc05"/><path d="M12,5.38A6,6,0,0,1,16.21,7l3.15-3.15A10.55,10.55,0,0,0,12,1,11,11,0,0,0,2.18,7.07L5.84,9.91A6.57,6.57,0,0,1,12,5.38Z" fill="#ea4335"/><path d="M1,1H23V23H1Z" fill="none"/></svg>